<?xml version="1.0" encoding="UTF-8" standalone="yes"?>
<!-- Created with sK1/UniConvertor (http://sk1project.org/) -->
<svg xmlns="http://www.w3.org/2000/svg" xmlns:xlink="http://www.w3.org/1999/xlink"
  width="300pt" height="300pt" viewBox="0 0 300 300"
  fill-rule="evenodd">
<g>
<g>
<path style="stroke:none; fill:#000000" d="M 137 13C 123.6 14.3 111.8 17.1 108.7 19.8C 107.8 20.7 106.2 23.8 105.4 26.8C 103.6 33 101.8 32.7 101.6 26.1C 101.5 20.9 100.4 20.8 90.8 25.8C 71 36 55 49 42 65.3C 30 80.4 26.6 87.2 26.6 95.9C 26.7 99.5 27.4 104.9 28.3 107.9L 30 113.3L 27.6 111.1C 26.2 109.8 24.7 107.6 24.2 106.2C 23.6 104.7 22.9 102.6 22.5 101.5C 21.9 100 21 101.7 18.9 108.5C 17.3 113.4 16 119.1 16 121.1C 16 125.9 19.1 134.6 24 143.6C 26.3 147.7 27.7 151 27.2 151C 25.7 151 18.1 142.1 15.6 137.5L 13.5 133.5L 13.2 145.5C 11.7 201.8 39.7 248.6 89.8 273.4C 105.2 281.1 129 287.5 139.2 286.8C 143.1 286.5 142.4 286.2 132.5 283.7C 102.4 276.1 89.4 269.5 73.6 253.7C 58.9 239 53.4 227.9 50.9 207.2C 48.2 184.5 55.4 156.5 65.1 151.7C 67.9 150.4 69.4 150.2 71.3 150.9C 74.1 152 74.2 152.4 75.7 162.8C 76.7 169.3 76.5 170.1 73.9 171.6C 72.4 172.4 72.5 173.2 74.4 180C 76.5 187.4 76.6 187.5 79.7 187.2C 82.4 186.9 82.9 187.3 83.9 190.1C 85.4 194.5 85.3 201.9 83.6 206.6C 81.9 211.4 74 224.6 70.5 228.2L 68 231L 70.6 231.6C 74.7 232.6 88.7 230.3 94.5 227.6C 101.3 224.5 107.3 219 109.9 213.5L 111.9 209.1L 110 203.4C 106.7 193.9 107.9 185.7 113.1 182.9C 117.9 180.4 125.4 184.7 127.9 191.3C 129.4 195.3 129.3 206.5 127.6 210.3C 126.9 212.1 125.3 214.4 124.1 215.4C 123 216.5 122 218 122 218.8C 122 220.8 136.1 238.2 139.9 241C 141.6 242.2 143.4 242.8 144 242.5C 145.5 241.6 145.1 232.8 143.5 230.6C 141.6 228.1 141.6 226.6 143.4 227.3C 144.2 227.6 145.2 227.1 145.6 226.2C 146.9 223.3 147.9 233 146.9 237.9C 145.2 245.7 147.4 248.2 163 256C 169.6 259.3 188 266 190.5 266C 191.5 266 191.3 264.7 189.5 260.8C 184.7 250.3 183.6 243.1 183.6 221.4C 183.5 204 183.3 201.4 182 201.7C 181.2 201.9 179.6 204.2 178.6 206.6C 176.9 210.7 176.9 211.8 178 216.5C 178.7 219.6 178.9 222.6 178.5 223.7C 177.7 225.3 177.6 225.3 177.3 223.3C 176.7 219.8 175 220.6 175 224.3C 175 226.9 174.6 227.6 173 227.6C 171.2 227.6 171 227.1 171.5 224.5C 171.9 222.9 173.1 220.2 174.2 218.6C 175.9 216.2 176.2 214.7 175.7 209.7C 175.4 206.4 174.6 203.4 173.9 202.9C 173.2 202.5 170.6 201.9 168.1 201.5C 160 200.3 155.3 196.8 156.4 192.8C 157 190.4 167.4 182.8 172.5 181L 175.5 180L 175.8 166.7C 176 156.7 175.7 152.4 174.6 149.1C 172.7 143.8 172.7 144 174.5 144C 175.3 144 176 144.7 176 145.5C 176 146.3 176.7 147 177.6 147C 179.1 147 179.2 148.1 178.6 155.9C 178 162.9 178.2 165.5 179.4 168.5C 180.3 170.6 181 173.8 181 175.6C 181 178.7 181.2 179 184.1 179C 191.7 179 192.9 181.8 197 208.6C 197.6 212.5 199.2 217.9 200.5 220.6L 202.9 225.5L 202.2 221.5C 200.6 212.5 201.7 193.8 204.9 176.3C 206.6 166.8 208 155.8 208 151.9C 208 146.3 208.5 144 210.1 141.3C 211.7 138.7 212.1 136.9 211.6 134.2C 210.8 128.9 205.8 119.3 200.5 113C 198 110 196 106.6 196 105.5C 196 99.4 209.2 87.4 220 83.4C 241.7 75.6 264.9 84.1 277 104.3C 281 110.9 281.9 110.4 279.5 102.9C 271.7 79.6 253.4 55.7 230.1 38.7C 225.1 35 223 34 219.8 34C 213.7 34 203.1 37 196.7 40.7C 189.7 44.6 188.4 44.8 190.5 41.6C 192.8 38.1 201.6 32.4 208 30.1L 213.5 28.1L 204.9 24.1C 200.1 21.8 195.1 20 193.7 20C 189.8 20 176 32.8 170.7 41.2C 167.8 45.9 167 44.3 169.2 38.2C 170.8 34 173.1 30.7 178.2 25.5C 181.9 21.6 185 18.2 185 17.8C 185 15.2 150.7 11.8 137 13zM 164 77.5C 179 81.4 182.4 83.2 182.8 87.7C 183.4 94.1 178.1 95.6 169.2 91.5C 162 88.2 154.4 86 149.8 86C 145.2 86 142 83.2 142 79.2C 142 72.9 145.3 72.7 164 77.5zM 120.8 78.2C 121.5 78.9 122 81.1 122 83.2C 122 87.4 120 89.3 114.3 90.5C 112.5 90.9 111 91.3 111 91.4C 111 91.5 111.9 94.1 113 97.2C 114.2 100.8 114.7 104 114.4 105.9C 113.8 108.5 114.3 109.6 117.7 113.3C 120.4 116.3 122.1 119.4 123.4 123.9C 124.4 127.3 124.9 130.4 124.6 130.7C 123.4 131.9 121 128.6 119.6 123.6C 118.1 118.5 115.6 115.3 111.4 113.1C 109.5 112.2 109.1 112.4 108.7 114.2C 108.3 115.4 107.8 116.2 107.5 115.9C 107.2 115.6 107.9 112.4 109 108.9C 111 102.7 111 102.5 109.2 100C 107 97.2 103.5 96.9 98.2 99.1C 95.1 100.4 94.7 100.3 93.4 98.6C 92.6 97.5 92 95.8 92 94.8C 92 90.6 103.7 81.1 112.3 78.5C 117.7 76.8 119.3 76.7 120.8 78.2zM 80.8 114.2C 82.8 116.2 82.2 119.8 77.9 129.6C 73.5 139.5 71.2 141.6 68.1 138.6C 67 137.4 66.5 135.3 66.6 131.7C 66.9 120.5 75.9 109.3 80.8 114.2zM 101.6 131.3C 102 131.6 101.3 133 100.2 134.4C 98.1 137.1 97.5 136.9 95.1 132.3C 94 130.2 94.2 130.1 97.5 130.4C 99.5 130.6 101.3 131 101.6 131.3zM 103 144.7C 104.1 145.5 105 147 105 148.1C 105 149.3 105.7 150 107 150C 108.1 150 109.8 150.8 110.8 151.7C 111.7 152.7 113.6 153.4 115 153.2C 119.4 152.7 122.4 153 123.4 154C 125.1 155.7 123.2 156.3 119.8 155.1C 117.6 154.3 116.4 154.3 116.2 155C 116 155.5 115.2 156 114.5 156C 113.8 156 113 156.8 112.8 157.7C 112.5 159.1 112 158.8 110.7 156.4C 108.8 152.7 106.6 151.6 104 153C 101.9 154.1 97.6 159.5 96.7 162.2C 96 164.1 94 164.7 94 163.1C 94 162.6 94.9 160.1 96 157.5C 97.2 154.8 98 150.6 98 147.5C 98 144.6 98.3 141.4 98.7 140.4C 99.3 138.9 99.4 139 100.2 141C 100.7 142.3 102 144 103 144.7z"/>
</g>
</g>
</svg>